# xmcd CD database file
#
# Track frame offsets:
#	150
#	19179
#	40587
#	57532
#	75356
#	85267
#	98114
#	114739
#	135827
#	150111
#	168210
#	185522
#	200407
#	218818
#
# Disc length: 3501 seconds
#
# Revision: 0
# Processed by: cddbd v1.5.2PL0 Copyright (c) Steve Scherf et al.
# Submitted via: CDex 1.51
#
DISCID=a50dab0e
DTITLE=Sureda - Todo Nada
DYEAR=1900
DGENRE=Jazz
TTITLE0=Esperarem
TTITLE1=Baila... tentación
TTITLE2=A la dérobée
TTITLE3=Nuestro puente
TTITLE4=Androwplinn
TTITLE5=Els cinc follets
TTITLE6=Sense tu
TTITLE7=Todo nada
TTITLE8=Dejé de esperarte
TTITLE9=La marche des farfadets
TTITLE10=Volarás
TTITLE11=Més que un dia
TTITLE12=Nacer
TTITLE13=Vull bogeries
EXTD=
EXTT0=
EXTT1=
EXTT2=
EXTT3=
EXTT4=
EXTT5=
EXTT6=
EXTT7=
EXTT8=
EXTT9=
EXTT10=
EXTT11=
EXTT12=
EXTT13=
PLAYORDER=
